<svg width="290" height="361" viewBox="0 0 290 361" fill="none" xmlns="http://www.w3.org/2000/svg">
<path fill-rule="evenodd" clip-rule="evenodd" d="M54.7255 26.8565C92.8955 -5.22331 147.925 -8.95325 190.025 17.7667C245.745 53.1367 242.765 126.226 241.095 170.906C238.965 228.046 257.655 261.697 265.665 271.307C273.675 280.917 292.365 291.607 289.165 306.017C285.965 320.426 270.475 322.037 242.705 317.227C214.935 312.427 209.066 317.227 200.516 344.467C191.965 371.707 157.255 356.217 157.255 356.217C113.695 342.137 88.6157 301.217 81.1454 287.257C80.4554 285.967 78.5252 286.576 78.6552 288.026C79.5052 297.256 84.515 309.597 87.745 316.757C88.9747 319.487 86.7449 322.507 83.7851 322.137C15.0551 313.957 -19.5853 188.686 11.4647 93.9962C21.8747 62.2363 37.8755 41.0265 54.7255 26.8565ZM144.755 73.7169C121.585 74.7872 122.535 108.427 122.535 108.427C125.745 151.686 165.795 142.606 164.725 108.427C163.655 74.2469 144.755 73.7169 144.755 73.7169ZM70.7353 66.7765C48.8786 62.503 42.4549 92.3156 42.4354 92.4063C37.0954 122.846 53.1151 124.986 53.1151 124.986C80.3451 133.526 92.625 71.0567 70.7353 66.7765Z" fill="#F9F9F9"/>
</svg>
