<svg width="514" height="537" viewBox="0 0 514 537" fill="none" xmlns="http://www.w3.org/2000/svg">
<path d="M52.6264 213.926V482.616C52.6264 512.656 76.9764 537.006 107.016 537.006H407.306C437.346 537.006 461.696 512.656 461.696 482.616V214.176C461.696 210.416 465.686 207.996 469.026 209.736L488.356 219.816C496.316 223.966 506.126 221.436 511.076 213.946L511.086 213.936C516.086 206.366 514.486 196.236 507.396 190.586L277.276 7.05627C265.496 -2.33373 248.796 -2.35372 236.996 7.00627L6.62641 189.806C-0.333594 195.336 -2.05359 205.196 2.62641 212.756C7.35641 220.396 17.1064 223.206 25.1864 219.276L45.4164 209.426C48.7464 207.796 52.6264 210.226 52.6264 213.926Z" fill="url(#paint0_linear_12_13)"/>
<path d="M297.256 521.686C285.466 521.686 274.836 517.676 271.666 516.356C249.246 508.956 231.356 495.486 217.766 481.596C215.506 482.926 212.896 483.656 210.186 483.656C210.146 483.656 210.116 483.656 210.076 483.656C183.336 483.456 159.276 469.546 140.496 443.416C103.966 392.606 94.0464 305.126 116.896 235.416C127.016 204.536 143.126 179.656 164.766 161.466C188.076 141.876 217.766 131.086 248.376 131.086C273.046 131.086 297.036 138.036 317.756 151.196C345.366 168.726 363.406 196.386 371.356 233.426C377.796 263.406 376.636 294.376 375.796 316.986L375.776 317.556C373.476 378.976 396.646 407.506 396.876 407.796C398.356 409.576 400.886 411.876 403.556 414.306C413.176 423.066 427.726 436.316 423.486 455.356C420.916 466.946 412.216 480.756 385.436 480.756C378.426 480.756 370.286 479.916 359.816 478.096C354.296 477.136 350.126 476.676 347.066 476.676C342.906 476.676 342.256 477.416 341.736 478.016C338.786 481.386 335.676 491.306 334.496 495.046C329.196 511.976 315.616 521.686 297.256 521.686Z" fill="black"/>
<path d="M297.246 510.676C286.756 510.676 277.126 506.736 275.516 506.046C242.286 495.236 219.726 469.846 206.836 450.926C208.306 454.896 209.866 458.526 211.076 461.196C212.236 463.766 211.916 466.776 210.246 469.056C208.576 471.336 205.796 472.546 202.986 472.206C180.796 469.566 160.876 455.336 145.386 431.046C130.526 407.746 120.446 375.996 117.006 341.616C113.426 305.916 117.006 270.376 127.346 238.836C136.826 209.926 151.796 186.726 171.836 169.876C191.226 153.576 214.906 144.056 240.316 142.346C265.746 140.636 290.476 146.896 311.856 160.466C369.276 196.916 366.476 271.806 364.796 316.556L364.776 317.126C362.326 382.716 387.346 413.536 388.416 414.816C390.386 417.176 393.186 419.726 396.146 422.416C404.816 430.306 415.596 440.126 412.746 452.956C408.396 472.526 385.636 471.386 361.696 467.246C348.026 464.876 340.906 465.156 336.296 468.236C331.126 471.686 327.756 479.786 324.006 491.736C321.536 499.596 316.906 505.116 310.226 508.126C306.096 509.996 301.596 510.676 297.246 510.676ZM199.696 428.626C201.616 428.626 203.396 429.666 204.356 431.446C210.916 443.696 235.616 484.736 278.176 498.486L278.576 498.636C278.736 498.706 295.496 506.016 306.966 500.826C311.526 498.766 314.606 495.006 316.386 489.346C320.766 475.376 324.706 466.356 331.866 461.586C339.416 456.546 349.406 457.006 363.066 459.366C395.086 464.906 402.966 460.116 404.936 451.226C406.776 442.936 398.636 435.516 390.756 428.346C387.586 425.456 384.586 422.736 382.266 419.946C371.836 407.426 354.726 371.626 356.776 316.836L356.796 316.266C357.606 294.656 358.716 265.066 352.766 237.406C345.826 205.086 331.036 182.126 307.556 167.226C287.626 154.576 264.566 148.736 240.846 150.336C217.136 151.936 195.056 160.806 176.976 176.006C158.086 191.886 143.946 213.866 134.936 241.336C115.056 301.976 122.286 379.956 152.126 426.746C166.216 448.836 184.026 461.796 203.656 464.226C199.856 455.766 195.206 443.826 194.346 434.476C194.106 431.906 195.666 429.596 198.136 428.856C198.666 428.706 199.186 428.626 199.696 428.626ZM203.786 464.476C203.786 464.486 203.786 464.486 203.786 464.476V464.476Z" fill="black"/>
<path fill-rule="evenodd" clip-rule="evenodd" d="M166.862 163.593C205.032 131.513 260.062 127.783 302.162 154.503C357.881 189.873 354.901 262.963 353.231 307.643C351.101 364.783 369.791 398.433 377.801 408.043C385.811 417.653 404.501 428.343 401.301 442.753C398.101 457.163 382.611 458.773 354.841 453.963C327.071 449.163 321.202 453.963 312.652 481.203C304.102 508.443 269.391 492.953 269.391 492.953C225.832 478.873 200.752 437.954 193.282 423.993C192.592 422.703 190.662 423.313 190.792 424.763C191.642 433.993 196.651 446.333 199.881 453.493C201.111 456.223 198.881 459.243 195.921 458.873C127.191 450.693 92.5512 325.422 123.601 230.732C134.011 198.973 150.012 177.763 166.862 163.593ZM256.891 210.453C233.722 211.523 234.671 245.163 234.671 245.163C237.882 288.423 277.932 279.343 276.862 245.163C275.792 210.983 256.891 210.453 256.891 210.453ZM182.872 203.513C161.015 199.239 154.591 229.052 154.572 229.143C149.232 259.583 165.252 261.723 165.252 261.723C192.481 270.263 204.761 207.793 182.872 203.513Z" fill="#F9F9F9"/>
<defs>
<linearGradient id="paint0_linear_12_13" x1="256.995" y1="0" x2="256.995" y2="537.006" gradientUnits="userSpaceOnUse">
<stop stop-color="#EF85FF"/>
<stop offset="1" stop-color="#88009D"/>
</linearGradient>
</defs>
</svg>
